<svg width="160" height="160" viewBox="0 0 160 160" fill="none" xmlns="http://www.w3.org/2000/svg">
<circle cx="80" cy="80" r="80" fill="#958FDC"/>
<path d="M135.912 80.0686C135.912 49.5031 111.022 24.726 80.3228 24.726C49.6239 24.726 24.7272 49.5031 24.7272 80.0686C24.7272 86.3878 25.7936 92.4572 27.7507 98.1144C27.7633 98.1394 27.8699 98.4641 27.8699 98.4641C28.6603 100.968 24.7398 101.948 24.7398 103.447C24.7398 105.795 33.0073 105.476 33.0073 108.205C33.0073 110.584 24.8276 111.321 24.8276 113.719C24.8276 117.034 42.9371 115.879 43.1692 118.727C43.3448 120.925 36.9403 121.062 36.9027 123.41C36.84 127.163 61.6174 125.932 61.6174 128.43C61.6174 130.322 50.3452 129.635 50.3452 131.871C50.3452 134.106 65.1804 135.517 81.5335 135.517C97.8866 135.517 109.165 133.707 109.165 131.752C109.165 129.798 98.6393 130.197 98.8589 128.436C99.2353 125.358 122.601 126.932 122.601 123.366C122.601 121.487 116.178 121.05 116.385 119.026C116.68 116.167 135.912 116.591 135.912 113.619C135.912 111.284 126.378 110.709 126.396 108.28C126.409 105.801 135.912 105.907 135.849 103.584C135.799 101.799 131.597 101.842 132.914 98.0583C134.858 92.4197 135.925 86.3691 135.925 80.0686H135.912ZM118.248 95.7854C116.316 100.138 111.975 99.2634 111.486 101.093C110.978 102.985 116.837 103.26 116.837 105.239C116.837 107.643 98.9781 106.682 99.1537 109.854C99.2666 111.852 111.837 112.189 111.599 114.275C111.254 117.297 92.1219 115.786 91.9337 118.683C91.7957 120.806 101.274 120.881 101.293 122.817C101.312 124.446 93.8532 125.333 79.5638 125.333C63.2923 125.333 55.376 124.459 56.2793 122.642C57.1198 120.943 71.5284 121.256 71.3841 118.583C71.2399 115.917 45.7975 116.697 45.0322 114.106C44.3924 111.952 53.3938 111.508 53.3374 109.46C53.2809 107.375 41.8143 107.849 41.5634 105.32C41.4003 103.666 47.5539 103.765 47.2904 101.68C47.0959 100.163 44.5555 100.375 43.05 97.2465C40.6224 92.0201 39.255 86.2005 39.255 80.0624C39.255 57.4833 57.6468 39.1752 80.3291 39.1752C103.011 39.1752 121.403 57.4833 121.403 80.0624C121.403 85.6322 120.28 90.9398 118.254 95.7791L118.248 95.7854Z" fill="#2B1D3C"/>
<path fill-rule="evenodd" clip-rule="evenodd" d="M27.7507 98.1144C25.7936 92.4572 24.7272 86.3878 24.7272 80.0686C24.7272 49.5031 49.6239 24.726 80.3228 24.726C111.022 24.726 135.912 49.5031 135.912 80.0686H135.925C135.925 80.2177 135.924 80.3666 135.923 80.5154C135.874 86.6551 134.812 92.5531 132.914 98.0583C132.097 100.405 133.402 101.279 134.524 102.031C135.212 102.491 135.83 102.906 135.849 103.584C135.88 104.729 133.588 105.284 131.253 105.849C128.85 106.431 126.403 107.023 126.396 108.28C126.387 109.507 128.816 110.261 131.222 111.008C133.578 111.739 135.912 112.463 135.912 113.619C135.912 115.124 130.979 115.758 126.071 116.389C121.288 117.004 116.531 117.615 116.385 119.026C116.279 120.066 117.924 120.687 119.548 121.3C121.084 121.88 122.601 122.453 122.601 123.366C122.601 125.218 116.296 125.684 110.183 126.135C104.529 126.552 99.0397 126.957 98.8589 128.436C98.7515 129.298 101.215 129.642 103.76 129.998C106.418 130.37 109.165 130.754 109.165 131.752C109.165 133.707 97.8866 135.517 81.5335 135.517C65.1804 135.517 50.3452 134.106 50.3452 131.871C50.3452 130.706 53.4031 130.335 56.3335 129.979C59.0294 129.651 61.6174 129.337 61.6174 128.43C61.6174 127.308 56.6193 126.939 51.1185 126.532C44.3715 126.032 36.8681 125.477 36.9027 123.41C36.9216 122.227 38.5562 121.605 40.1514 120.999C41.723 120.401 43.2564 119.817 43.1692 118.727C43.0578 117.36 38.8292 116.916 34.4607 116.456C29.7263 115.958 24.8276 115.443 24.8276 113.719C24.8276 112.518 26.8805 111.733 28.9295 110.95C30.9704 110.171 33.0073 109.392 33.0073 108.205C33.0073 106.79 30.7822 106.194 28.6407 105.621C26.6543 105.089 24.7398 104.577 24.7398 103.447C24.7398 102.835 25.3944 102.309 26.1147 101.73C27.1572 100.893 28.3373 99.9449 27.8699 98.4641C27.8699 98.4641 27.7633 98.1394 27.7507 98.1144ZM27.4454 98.6013C27.6017 99.0984 27.5267 99.5025 27.3234 99.8732C27.1085 100.265 26.7462 100.625 26.3135 100.991C26.1726 101.11 26.0181 101.235 25.8612 101.361C25.5693 101.596 25.2689 101.837 25.031 102.066C24.6646 102.419 24.2938 102.875 24.2938 103.447C24.2938 103.889 24.4939 104.25 24.7833 104.533C25.0644 104.808 25.4426 105.025 25.8514 105.206C26.6017 105.538 27.5732 105.798 28.5167 106.05C28.5974 106.072 28.6779 106.093 28.7581 106.115C29.8008 106.395 30.7882 106.673 31.5151 107.04C32.2597 107.415 32.5613 107.794 32.5613 108.205C32.5613 108.363 32.4964 108.534 32.3222 108.73C32.144 108.932 31.8708 109.137 31.5071 109.346C30.7772 109.766 29.7918 110.143 28.7585 110.538L28.7452 110.543C27.7373 110.928 26.6833 111.33 25.8827 111.793C25.4793 112.027 25.1134 112.29 24.8445 112.596C24.5714 112.906 24.3816 113.281 24.3816 113.719C24.3816 114.371 24.8346 114.834 25.3805 115.154C25.9342 115.48 26.6943 115.73 27.5583 115.934C29.2925 116.345 31.5933 116.603 33.8646 116.843C34.0461 116.862 34.2275 116.881 34.4085 116.9C36.5084 117.121 38.5485 117.335 40.1186 117.647C40.9738 117.817 41.6562 118.01 42.1223 118.233C42.6174 118.47 42.7166 118.665 42.7247 118.763C42.7473 119.049 42.575 119.339 42.0341 119.676C41.5033 120.006 40.7659 120.287 39.961 120.593L39.9576 120.594C39.177 120.891 38.3336 121.213 37.6861 121.618C37.0458 122.019 36.4701 122.581 36.4568 123.402C36.4442 124.155 37.0568 124.66 37.75 125.002C38.4755 125.358 39.4849 125.637 40.6526 125.865C42.996 126.322 46.1126 126.599 49.2025 126.836C49.8359 126.885 50.4681 126.931 51.0928 126.978C53.5302 127.158 55.8543 127.33 57.6909 127.563C58.8472 127.71 59.7819 127.877 60.4195 128.078C60.7411 128.179 60.9555 128.278 61.0809 128.368C61.1306 128.403 61.1554 128.428 61.1671 128.443C61.1639 128.449 61.1582 128.458 61.1479 128.47C61.1146 128.511 61.0466 128.569 60.9212 128.636C60.6683 128.773 60.2765 128.9 59.7589 129.016C58.8132 129.227 57.5711 129.378 56.274 129.536C56.1588 129.55 56.0432 129.564 55.9274 129.578C54.5255 129.749 53.0845 129.935 51.9927 130.224C51.4494 130.368 50.9554 130.546 50.5881 130.783C50.222 131.019 49.8993 131.372 49.8993 131.871C49.8993 132.413 50.3387 132.795 50.792 133.056C51.2791 133.337 51.9658 133.588 52.8022 133.815C54.482 134.271 56.8744 134.659 59.7583 134.976C65.5325 135.611 73.3468 135.964 81.5335 135.964C89.7237 135.964 96.6539 135.511 101.545 134.81C103.987 134.46 105.939 134.046 107.29 133.588C107.963 133.36 108.512 133.113 108.903 132.842C109.275 132.583 109.611 132.225 109.611 131.752C109.611 131.277 109.285 130.952 108.949 130.742C108.606 130.527 108.145 130.362 107.64 130.226C106.624 129.952 105.285 129.76 103.991 129.579L103.836 129.557C102.579 129.382 101.376 129.213 100.485 128.989C100.018 128.872 99.6776 128.748 99.4693 128.622C99.3666 128.56 99.3217 128.512 99.3054 128.488C99.3042 128.487 99.3033 128.485 99.3025 128.484C99.3097 128.441 99.3411 128.364 99.4713 128.256C99.6108 128.141 99.8313 128.019 100.146 127.898C100.775 127.657 101.681 127.458 102.794 127.289C104.845 126.977 107.502 126.781 110.221 126.58C110.448 126.563 110.676 126.546 110.904 126.529C113.842 126.311 116.8 126.076 119.025 125.669C120.133 125.466 121.094 125.215 121.788 124.885C122.45 124.57 123.047 124.094 123.047 123.366C123.047 122.992 122.884 122.678 122.658 122.425C122.436 122.177 122.139 121.97 121.819 121.79C121.223 121.455 120.451 121.163 119.717 120.886C119.669 120.868 119.621 120.85 119.573 120.832C118.773 120.53 118.033 120.241 117.504 119.914C116.951 119.572 116.805 119.299 116.829 119.072C116.839 118.971 116.96 118.76 117.503 118.497C118.009 118.252 118.744 118.031 119.657 117.829C121.434 117.435 123.77 117.135 126.141 116.83L126.316 116.808C128.731 116.497 131.169 116.18 133.004 115.751C133.918 115.537 134.715 115.288 135.293 114.982C135.841 114.693 136.358 114.261 136.358 113.619C136.358 113.159 136.12 112.785 135.807 112.492C135.497 112.202 135.076 111.955 134.612 111.737C133.709 111.312 132.523 110.944 131.372 110.587L131.279 110.558C130.079 110.185 128.924 109.823 128.07 109.408C127.642 109.201 127.32 108.995 127.111 108.791C126.906 108.591 126.841 108.425 126.842 108.284V108.282C126.843 108.133 126.91 107.975 127.11 107.792C127.316 107.603 127.634 107.418 128.06 107.239C128.912 106.881 130.061 106.597 131.256 106.308L131.376 106.279C132.511 106.004 133.679 105.722 134.567 105.364C135.026 105.179 135.447 104.96 135.757 104.686C136.073 104.407 136.308 104.037 136.295 103.572L136.295 103.572C136.277 102.924 135.874 102.482 135.464 102.151C135.256 101.984 135.022 101.827 134.799 101.678L134.777 101.662C134.556 101.515 134.343 101.372 134.14 101.216C133.722 100.895 133.394 100.552 133.227 100.109C133.063 99.6753 133.031 99.0797 133.335 98.2054L133.335 98.2041C135.296 92.5198 136.371 86.4199 136.371 80.0686V79.6219H136.356C136.115 49.0128 111.116 24.2793 80.3228 24.2793C49.3802 24.2793 24.2812 49.2537 24.2812 80.0686C24.2812 86.4385 25.3562 92.5573 27.3293 98.2607L27.339 98.2887L27.3429 98.2965C27.3456 98.304 27.3491 98.3139 27.3533 98.3261C27.3643 98.3578 27.3782 98.399 27.3922 98.4407C27.406 98.4821 27.4196 98.5229 27.4297 98.5535L27.4418 98.5901L27.4447 98.5988M61.1766 128.458C61.1766 128.458 61.1756 128.457 61.1746 128.453C61.1761 128.456 61.1766 128.458 61.1766 128.458ZM118.254 95.7791C120.28 90.9398 121.403 85.6322 121.403 80.0624C121.403 57.4833 103.011 39.1752 80.3291 39.1752C57.6468 39.1752 39.255 57.4833 39.255 80.0624C39.255 86.2005 40.6224 92.0201 43.05 97.2465C43.8886 98.989 45.0482 99.6951 45.9447 100.241C46.6577 100.675 47.2043 101.008 47.2904 101.68C47.43 102.785 45.7678 103.276 44.1984 103.741C42.8061 104.152 41.4867 104.542 41.5634 105.32C41.6945 106.642 44.8893 107.143 47.9176 107.618C50.6835 108.052 53.3104 108.465 53.3374 109.46C53.3647 110.452 51.268 111.067 49.1706 111.683C46.9368 112.339 44.7022 112.995 45.0322 114.106C45.4104 115.387 51.8171 115.844 58.218 116.3C64.7676 116.768 71.3112 117.235 71.3841 118.583C71.4656 120.093 66.903 120.65 62.7657 121.155C59.5792 121.544 56.645 121.903 56.2793 122.642C55.376 124.459 63.2923 125.333 79.5638 125.333C93.8532 125.333 101.312 124.446 101.293 122.817C101.284 121.875 99.0366 121.374 96.7468 120.863C94.3287 120.324 91.8629 119.773 91.9337 118.683C92.0269 117.248 96.7653 116.895 101.567 116.536C106.463 116.171 111.425 115.8 111.599 114.275C111.72 113.212 108.518 112.603 105.332 111.998C102.263 111.414 99.2091 110.834 99.1537 109.854C99.0597 108.156 104.133 107.642 108.869 107.163C112.98 106.747 116.837 106.356 116.837 105.239C116.837 104.263 115.412 103.702 114.029 103.156C112.607 102.596 111.228 102.052 111.486 101.093C111.683 100.357 112.503 100.059 113.538 99.6816C115.077 99.1212 117.093 98.3872 118.248 95.7854L118.254 95.7791ZM117.877 95.5248C119.859 90.7609 120.957 85.5403 120.957 80.0624C120.957 57.7326 102.768 39.6219 80.3291 39.6219C57.8904 39.6219 39.701 57.7326 39.701 80.0624C39.701 86.1322 41.0528 91.8867 43.453 97.0552C44.1535 98.5091 45.0843 99.1819 45.8972 99.6879C45.9825 99.741 46.0695 99.7939 46.1567 99.8469C46.4728 100.039 46.7921 100.233 47.0438 100.444C47.3879 100.733 47.6654 101.098 47.7328 101.623L47.7329 101.624C47.8338 102.423 47.2895 102.947 46.7062 103.283C46.1162 103.623 45.3257 103.871 44.5917 104.09C44.5019 104.117 44.4129 104.143 44.3249 104.169C43.6664 104.364 43.0661 104.542 42.6144 104.752C42.3595 104.87 42.1918 104.982 42.0961 105.083C42.0114 105.172 42.0025 105.228 42.0072 105.276C42.0202 105.408 42.1085 105.575 42.3921 105.771C42.6751 105.966 43.0938 106.147 43.6326 106.314C44.7076 106.646 46.1335 106.885 47.5926 107.115C47.7253 107.136 47.8582 107.157 47.9911 107.178C49.3014 107.383 50.6111 107.589 51.6233 107.857C52.1787 108.005 52.6807 108.18 53.0546 108.404C53.4176 108.622 53.7698 108.955 53.7832 109.448M53.7832 109.448C53.7952 109.887 53.5584 110.235 53.2661 110.494C52.9754 110.752 52.5817 110.968 52.1528 111.156C51.3512 111.509 50.31 111.814 49.3056 112.109C49.2341 112.13 49.1627 112.151 49.0916 112.172C47.9993 112.493 46.9775 112.804 46.2671 113.159C45.9099 113.337 45.6763 113.506 45.5504 113.658C45.441 113.789 45.4305 113.88 45.4597 113.979L45.4599 113.979C45.4593 113.977 45.464 113.996 45.4984 114.032C45.5335 114.069 45.5915 114.116 45.6821 114.171C45.8654 114.281 46.1384 114.394 46.5068 114.505C47.2411 114.726 48.2699 114.915 49.5111 115.081C51.9351 115.404 55.0883 115.629 58.2593 115.856L58.4727 115.871C61.7048 116.101 64.9397 116.336 67.3758 116.681C68.5907 116.853 69.6325 117.056 70.3836 117.308C70.757 117.433 71.0871 117.58 71.3348 117.76C71.5786 117.938 71.81 118.198 71.8295 118.559C71.8602 119.129 71.4901 119.543 71.0554 119.829C70.6155 120.117 70.0083 120.346 69.3222 120.536C67.9431 120.919 66.0988 121.187 64.2571 121.421C63.772 121.482 63.287 121.542 62.8093 121.6C61.4575 121.765 60.1639 121.923 59.0895 122.107C58.3625 122.232 57.7584 122.365 57.3173 122.513C57.0966 122.587 56.9324 122.66 56.8194 122.728C56.7003 122.8 56.6772 122.844 56.6789 122.84L56.6785 122.841C56.6534 122.891 56.6555 122.915 56.6562 122.92C56.6568 122.926 56.6604 122.95 56.698 122.996C56.7854 123.103 56.9957 123.252 57.4094 123.412C58.222 123.728 59.5869 124.003 61.5315 124.225C65.405 124.668 71.4307 124.886 79.5638 124.886C86.7036 124.886 92.12 124.665 95.7423 124.242C97.5576 124.031 98.8973 123.771 99.7718 123.474C100.211 123.325 100.503 123.176 100.676 123.041C100.847 122.907 100.847 122.832 100.847 122.822L100.847 122.821C100.846 122.783 100.827 122.685 100.616 122.531C100.408 122.378 100.086 122.225 99.6554 122.074C98.8407 121.788 97.7621 121.547 96.6374 121.296L96.4573 121.256C95.2888 120.995 94.0813 120.719 93.1748 120.369C92.7231 120.195 92.3095 119.988 92.007 119.731C91.6992 119.47 91.459 119.111 91.4887 118.654C91.53 118.019 92.0776 117.627 92.6371 117.378C93.231 117.112 94.0395 116.915 94.9621 116.756C96.7737 116.446 99.1536 116.268 101.519 116.092L101.674 116.08C104.107 115.898 106.511 115.715 108.329 115.391C109.241 115.229 109.973 115.036 110.478 114.806C111.012 114.563 111.142 114.349 111.156 114.224C111.157 114.215 111.159 114.196 111.13 114.153C111.095 114.101 111.024 114.028 110.891 113.94C110.624 113.763 110.201 113.586 109.639 113.412C108.521 113.065 106.996 112.769 105.425 112.47L105.237 112.435C103.742 112.15 102.222 111.861 101.055 111.523C100.45 111.348 99.9092 111.151 99.5079 110.919C99.1346 110.703 98.7364 110.373 98.7085 109.879L98.7084 109.878C98.6726 109.231 99.1117 108.772 99.6345 108.46C100.165 108.142 100.902 107.898 101.739 107.698C103.422 107.296 105.668 107.042 107.884 106.814C108.199 106.782 108.514 106.75 108.826 106.718C110.728 106.525 112.553 106.341 113.971 106.088C114.799 105.941 115.455 105.776 115.894 105.587C116.114 105.492 116.251 105.403 116.327 105.33C116.363 105.295 116.379 105.271 116.385 105.258C116.391 105.247 116.391 105.242 116.391 105.239C116.391 104.993 116.212 104.721 115.695 104.403C115.203 104.099 114.543 103.839 113.842 103.563L113.807 103.549C113.121 103.278 112.385 102.987 111.858 102.631C111.592 102.451 111.344 102.232 111.184 101.957C111.016 101.667 110.96 101.334 111.055 100.977C111.229 100.327 111.743 99.9613 112.284 99.7011C112.558 99.5692 112.865 99.4524 113.178 99.3377C113.248 99.312 113.318 99.2863 113.389 99.2605C113.64 99.1691 113.896 99.0758 114.161 98.9702C115.495 98.4373 116.941 97.6295 117.841 95.6038L117.874 95.5274L117.877 95.5248" fill="#2B1D3C"/>
</svg>
