<svg width="179" height="179" viewBox="0 0 179 179" fill="none" xmlns="http://www.w3.org/2000/svg">
<path d="M163.2 134.75C163.22 130.76 178.48 130.93 178.38 127.18C178.32 124.95 174.27 124.49 173.42 121.56C173.28 121.02 173.23 120.4 173.32 119.67C173.38 119.24 173.49 118.77 173.67 118.26C176.8 109.16 178.5 99.4 178.5 89.25C178.5 39.96 138.54 0 89.25 0C39.96 0 0 39.96 0 89.25C0 99.35 1.67999 109.05 4.76999 118.1C4.78999 118.18 4.82001 118.27 4.85001 118.36C4.94001 118.6 5.00999 118.82 5.07999 119.04C6.17999 123 0.019989 124.57 0.019989 126.96C0.019989 130.74 13.29 130.24 13.29 134.64C13.29 138.47 0.160004 139.66 0.160004 143.53C0.160004 148.87 29.24 147.02 29.6 151.61C29.88 155.16 19.6 155.37 19.54 159.16C19.44 165.21 59.22 163.23 59.22 167.26C59.22 170.31 41.13 169.2 41.13 172.81C41.13 176.42 64.95 178.69 91.2 178.69C117.45 178.69 135.55 175.77 135.55 172.61C135.55 169.45 118.65 170.11 119 167.26C119.61 162.29 157.11 164.83 157.11 159.08C157.11 156.05 146.79 155.34 147.13 152.08C147.6 147.47 178.48 148.15 178.48 143.36C178.48 139.59 163.18 138.67 163.2 134.75ZM123.22 157.31C123.22 159.95 111.26 161.15 88.3 161.15C69.52 161.15 50.87 159.97 50.87 156.9C50.87 153.83 73.12 153.56 88.41 153.58C108.78 153.62 123.23 154.56 123.22 157.3V157.31ZM89.25 23.31C117.4 23.31 141.43 40.95 150.89 65.78C151.98 69 148.02 68.8 145.22 68.8H137.62C132.19 68.8 125.36 69.45 125.36 70.94C125.36 72.8 141.95 72.69 143.78 72.69C149.13 72.69 153.33 73.09 153.94 76.38C154.76 80.54 155.2 84.84 155.2 89.24C155.2 98.08 153.45 106.52 150.29 114.22C149.26 116.49 147.92 117.66 146.28 118.64C138.43 123 124.21 122.22 124.21 124.85C124.21 128.67 148.17 127.04 148.2 130.36C148.25 135.43 105.45 132.42 105.46 136.99C105.46 141.52 139.89 139.41 139.89 144.16C139.89 146.55 128.83 147.43 116.78 147.73C98.05 147.98 64.95 147.83 52.47 147.41C52.47 147.41 52.47 147.41 52.48 147.42C44.04 147.12 36.85 145.96 34.03 144.75C33.25 144.42 33.22 143.47 33.96 143.09C42.49 138.7 94.55 142.2 94.55 137.1C94.55 132 43.11 135.53 43.15 131.11C43.18 127.97 65.63 128.24 83.43 128.24C106.49 128.24 113.57 127.09 113.56 125.42C113.54 122.08 85.2 124.04 85.1 120.29C85 116.65 129.96 119.31 129.96 115.75C129.96 113.49 110.43 113.27 90.9 113.35C71.37 113.42 51.84 113.46 51.84 115.88C51.84 118.62 74.95 117.56 74.95 120.3C74.95 122.47 62.25 122.92 48.98 122.92C40.23 122.92 33.44 122.26 30.11 118.13C29.84 117.79 29.56 117.29 29.34 116.85C25.48 108.45 23.3 99.11 23.3 89.26C23.3 52.84 52.82 23.32 89.24 23.32L89.25 23.31Z" fill="white"/>
<path d="M87.9103 108.24C116.31 108.24 143.96 108.65 143.97 105.48C143.97 101.64 104.31 102.09 83.7103 102.09C67.3703 102.09 38.0703 101.58 38.0703 105.23C38.0703 108.88 70.8703 108.25 87.9103 108.25V108.24Z" fill="white"/>
<path d="M106.25 97.3396C124.92 97.3396 134.27 97.1196 134.27 94.8696C134.27 91.6096 108.85 93.4196 108.85 90.1896C108.85 87.3596 124.91 88.9496 124.91 85.8996C124.91 83.4996 106.92 83.7296 97.12 83.7296C86.24 83.7296 75.54 84.1396 75.54 86.1796C75.54 88.8196 102.95 87.3396 102.95 90.0496C102.95 93.9296 59.46 91.1296 59.46 94.8696C59.46 98.4096 87.73 97.3396 106.25 97.3396Z" fill="white"/>
<path d="M124.57 80.0402C128.57 80.0402 140.3 79.7902 140.3 78.1902C140.3 76.5902 131.61 76.0702 122.58 76.0802C116.37 76.0802 103.72 76.1902 103.72 78.0002C103.72 79.8102 113.32 80.0502 124.57 80.0402Z" fill="white"/>
<path d="M131.34 85.9602C131.34 87.4802 138.05 88.1002 143.2 88.1002C146.17 88.1002 151.84 87.4802 151.84 86.2802C151.84 84.8202 146.02 84.3802 142.48 84.3302C137.89 84.2702 131.34 84.6502 131.34 85.9602Z" fill="white"/>
</svg>
