<?xml version="1.0" encoding="UTF-8"?>
<svg id="Layer_2" data-name="Layer 2" xmlns="http://www.w3.org/2000/svg" viewBox="0 0 1193.2 177.44">
  <defs>
    <style>
      .cls-1 {
        fill: #fff;
        stroke-width: 0px;
      }
    </style>
  </defs>
  <g id="Layer_1-2" data-name="Layer 1">
    <g>
      <path class="cls-1" d="M177.25,88.63C177.25,39.68,137.57,0,88.63,0S0,39.68,0,88.63c0,10.12,1.7,19.84,4.82,28.9.02.04.19.56.19.56C6.27,122.1.02,123.67.02,126.07c0,3.76,13.18,3.25,13.18,7.62,0,3.81-13.04,4.99-13.04,8.83,0,5.31,28.87,3.46,29.24,8.02.28,3.52-9.93,3.74-9.99,7.5-.1,6.01,39.4,4.04,39.4,8.04,0,3.03-17.97,1.93-17.97,5.51s23.65,5.84,49.72,5.84,44.05-2.9,44.05-6.03-16.78-2.49-16.43-5.31c.6-4.93,37.85-2.41,37.85-8.12,0-3.01-10.24-3.71-9.91-6.95.47-4.58,31.13-3.9,31.13-8.66,0-3.74-15.2-4.66-15.17-8.55.02-3.97,15.17-3.8,15.07-7.52-.08-2.86-6.78-2.79-4.68-8.85,3.1-9.03,4.8-18.72,4.8-28.81ZM149.09,113.8c-3.08,6.97-10,5.57-10.78,8.5-.81,3.03,8.53,3.47,8.53,6.64,0,3.85-28.47,2.31-28.19,7.39.18,3.2,20.22,3.74,19.84,7.08-.55,4.84-31.05,2.42-31.35,7.06-.22,3.4,14.89,3.52,14.92,6.62.03,2.61-11.86,4.03-34.64,4.03-25.94,0-38.56-1.4-37.12-4.31,1.34-2.72,24.31-2.22,24.08-6.5-.23-4.27-40.79-3.02-42.01-7.17-1.02-3.45,13.33-4.16,13.24-7.44-.09-3.34-18.37-2.58-18.77-6.63-.26-2.65,9.55-2.49,9.13-5.83-.31-2.43-4.36-2.09-6.76-7.1-3.87-8.37-6.05-17.69-6.05-27.52,0-36.16,29.32-65.48,65.48-65.48s65.48,29.32,65.48,65.48c0,8.92-1.79,17.42-5.02,25.17Z"/>
      <polygon class="cls-1" points="298.23 129.03 263.16 29.56 237.03 29.56 237.03 147.58 254.39 147.58 254.39 50.29 288.96 147.58 307.33 147.58 342.4 49.45 342.4 147.58 359.77 147.58 359.77 29.56 333.64 29.56 298.23 129.03"/>
      <polygon class="cls-1" points="719.75 122.45 664.95 29.56 641.69 29.56 641.69 147.58 659.22 147.58 659.22 51.81 715.53 147.58 737.28 147.58 737.28 29.56 719.75 29.56 719.75 122.45"/>
      <path class="cls-1" d="M828.1,86.37c10.28-4.89,16.18-14.16,16.18-25.96,0-18.38-14.84-30.85-36.92-30.85h-49.4v118.02h51.59c22.93,0,37.93-13.15,37.93-32.71,0-13.66-7.25-23.77-19.39-28.49ZM776,44.9h30.85c11.8,0,19.56,7.08,19.56,17.53s-7.75,17.37-19.56,17.37h-30.85v-34.9ZM808.71,132.06h-32.71v-37.26h32.54c12.81,0,20.91,7.25,20.91,18.55s-7.92,18.71-20.74,18.71Z"/>
      <polygon class="cls-1" points="880.85 95.31 936.16 95.31 936.16 79.46 880.85 79.46 880.85 45.4 942.23 45.4 942.23 29.56 862.81 29.56 862.81 147.58 942.9 147.58 942.9 131.73 880.85 131.73 880.85 95.31"/>
      <path class="cls-1" d="M995.86,29.56l-46.7,118.02h18.88l10.12-26.47h54.12l10.12,26.47h19.05l-46.53-118.02h-19.05ZM983.89,106.27l21.41-56.31,21.41,56.31h-42.83Z"/>
      <polygon class="cls-1" points="1167.06 29.56 1131.66 129.03 1096.59 29.56 1070.46 29.56 1070.46 147.58 1087.82 147.58 1087.82 50.29 1122.38 147.58 1140.76 147.58 1175.83 49.45 1175.83 147.58 1193.2 147.58 1193.2 29.56 1167.06 29.56"/>
      <path class="cls-1" d="M435.71,27.36c-33.66,0-60.95,27.29-60.95,60.95s27.29,60.95,60.95,60.95,60.95-27.29,60.95-60.95-27.29-60.95-60.95-60.95ZM467.7,120.3c-8.54,8.54-19.9,13.25-31.98,13.25s-23.44-4.71-31.98-13.25-13.25-19.9-13.25-31.98,4.7-23.44,13.25-31.98,19.9-13.25,31.98-13.25,23.44,4.7,31.98,13.25,13.25,19.9,13.25,31.98-4.7,23.44-13.25,31.98Z"/>
      <path class="cls-1" d="M566.18,27.36c-33.66,0-60.95,27.29-60.95,60.95s27.29,60.95,60.95,60.95,60.95-27.29,60.95-60.95-27.29-60.95-60.95-60.95ZM598.17,120.3c-8.54,8.54-19.9,13.25-31.98,13.25s-23.44-4.71-31.98-13.25-13.25-19.9-13.25-31.98,4.7-23.44,13.25-31.98,19.9-13.25,31.98-13.25,23.44,4.7,31.98,13.25,13.25,19.9,13.25,31.98-4.7,23.44-13.25,31.98Z"/>
    </g>
  </g>
</svg>