<svg width="615" height="93" viewBox="0 0 615 93" fill="none" xmlns="http://www.w3.org/2000/svg">
<path d="M84.1224 69.4576C84.1327 67.401 91.9985 67.4886 91.947 65.5556C91.916 64.4062 89.8284 64.1691 89.3903 62.6588C89.3181 62.3804 89.2924 62.0608 89.3388 61.6846C89.3697 61.4629 89.4264 61.2207 89.5192 60.9578C91.1325 56.2671 92.0088 51.2363 92.0088 46.0044C92.0088 20.5976 71.4112 0 46.0044 0C20.5976 0 0 20.5976 0 46.0044C0 51.2105 0.86596 56.2104 2.45872 60.8753C2.46903 60.9165 2.4845 60.9629 2.49996 61.0093C2.54635 61.133 2.58243 61.2464 2.61851 61.3598C3.18551 63.401 0.0103034 64.2103 0.0103034 65.4422C0.0103034 67.3907 6.85041 67.1329 6.85041 69.4009C6.85041 71.3751 0.0824748 71.9885 0.0824748 73.9833C0.0824748 76.7359 15.0719 75.7823 15.2575 78.1482C15.4018 79.9781 10.1029 80.0863 10.072 82.0399C10.0205 85.1584 30.5253 84.1378 30.5253 86.2151C30.5253 87.7872 21.2007 87.2151 21.2007 89.0759C21.2007 90.9367 33.4788 92.1067 47.0095 92.1067C60.5402 92.1067 69.87 90.6016 69.87 88.9728C69.87 87.3439 61.1588 87.6841 61.3392 86.2151C61.6536 83.6533 80.9832 84.9625 80.9832 81.9987C80.9832 80.4368 75.6637 80.0709 75.839 78.3905C76.0812 76.0142 91.9985 76.3647 91.9985 73.8957C91.9985 71.9524 84.112 71.4782 84.1224 69.4576ZM63.5144 81.0863C63.5144 82.4471 57.3496 83.0657 45.5147 83.0657C35.8345 83.0657 26.2212 82.4574 26.2212 80.875C26.2212 79.2925 37.6901 79.1534 45.5714 79.1637C56.0713 79.1843 63.5196 79.6688 63.5144 81.0812V81.0863ZM46.0044 12.0153C60.5145 12.0153 72.9009 21.1079 77.7771 33.9067C78.3389 35.5664 76.2977 35.4633 74.8545 35.4633H70.937C68.1381 35.4633 64.6175 35.7984 64.6175 36.5664C64.6175 37.5252 73.1689 37.4685 74.1122 37.4685C76.8699 37.4685 79.0348 37.6746 79.3492 39.3705C79.7719 41.5148 79.9987 43.7313 79.9987 45.9993C79.9987 50.5559 79.0966 54.9063 77.4678 58.8753C76.9369 60.0454 76.2462 60.6485 75.4008 61.1536C71.3545 63.401 64.0247 62.999 64.0247 64.3546C64.0247 66.3237 76.375 65.4835 76.3905 67.1948C76.4163 69.8081 54.3548 68.2566 54.3599 70.6123C54.3599 72.9473 72.1071 71.8597 72.1071 74.3081C72.1071 75.54 66.4061 75.9936 60.1949 76.1482C50.5404 76.2771 33.4788 76.1998 27.046 75.9833C27.046 75.9833 27.0459 75.9833 27.0511 75.9885C22.7007 75.8338 18.9945 75.2359 17.541 74.6122C17.1389 74.4421 17.1234 73.9524 17.5049 73.7565C21.9017 71.4937 48.7363 73.2978 48.7363 70.669C48.7363 68.0401 22.2213 69.8597 22.2419 67.5814C22.2574 65.9628 33.8293 66.102 43.0045 66.102C54.8909 66.102 58.5403 65.5092 58.5351 64.6484C58.5248 62.9268 43.9168 63.9371 43.8653 62.0041C43.8137 60.1279 66.9886 61.499 66.9886 59.664C66.9886 58.499 56.9218 58.3856 46.8549 58.4269C36.7881 58.463 26.7212 58.4836 26.7212 59.731C26.7212 61.1433 38.6334 60.597 38.6334 62.0093C38.6334 63.1278 32.0871 63.3598 25.247 63.3598C20.7368 63.3598 17.2368 63.0196 15.5204 60.8908C15.3812 60.7155 15.2369 60.4578 15.1235 60.231C13.1338 55.9011 12.0101 51.0868 12.0101 46.0096C12.0101 27.2367 27.2264 12.0204 45.9992 12.0204L46.0044 12.0153Z" fill="white"/>
<path d="M45.3137 55.7929C59.9526 55.7929 74.205 56.0042 74.2101 54.3703C74.2101 52.3909 53.7672 52.6229 43.1488 52.6229C34.7262 52.6229 19.6234 52.36 19.6234 54.2414C19.6234 56.1228 36.5303 55.7981 45.3137 55.7981V55.7929Z" fill="white"/>
<path d="M54.7672 50.1744C64.3907 50.1744 69.2102 50.061 69.2102 48.9013C69.2102 47.2209 56.1073 48.1539 56.1073 46.4889C56.1073 45.0302 64.3856 45.8498 64.3856 44.2776C64.3856 43.0405 55.1125 43.1591 50.061 43.1591C44.4529 43.1591 38.9375 43.3704 38.9375 44.422C38.9375 45.7828 53.0661 45.0199 53.0661 46.4168C53.0661 48.4167 30.649 46.9735 30.649 48.9013C30.649 50.726 45.2209 50.1744 54.7672 50.1744Z" fill="white"/>
<path d="M64.2103 41.2571C66.2721 41.2571 72.3184 41.1282 72.3184 40.3035C72.3184 39.4787 67.8391 39.2107 63.1845 39.2159C59.9836 39.2159 53.463 39.2725 53.463 40.2055C53.463 41.1385 58.4114 41.2622 64.2103 41.2571Z" fill="white"/>
<path d="M67.6999 44.3086C67.6999 45.0921 71.1586 45.4116 73.8132 45.4116C75.3441 45.4116 78.2668 45.092 78.2668 44.4735C78.2668 43.7209 75.2668 43.4941 73.4421 43.4684C71.0762 43.4374 67.6999 43.6333 67.6999 44.3086Z" fill="white"/>
<path d="M185.93 15.4174V76.5143H176.94V25.7162L158.786 76.5143H149.27L131.379 26.1543V76.5143H122.389V15.4174H135.92L154.075 66.9114L172.404 15.4174H185.935H185.93Z" fill="white"/>
<path d="M225.243 22.4173C231.496 22.4173 237.377 24.8554 241.8 29.278C246.223 33.7006 248.661 39.5819 248.661 45.8344C248.661 52.0869 246.223 57.9682 241.8 62.3908C237.377 66.8134 231.496 69.2515 225.243 69.2515C218.991 69.2515 213.11 66.8134 208.687 62.3908C204.264 57.9682 201.826 52.0869 201.826 45.8344C201.826 39.5819 204.264 33.7006 208.687 29.278C213.11 24.8554 218.991 22.4173 225.243 22.4173ZM225.243 14.2782C207.816 14.2782 193.692 28.4069 193.692 45.8292C193.692 63.2516 207.821 77.3803 225.243 77.3803C242.666 77.3803 256.795 63.2516 256.795 45.8292C256.795 28.4069 242.666 14.2782 225.243 14.2782Z" fill="white"/>
<path d="M292.789 22.4173C299.041 22.4173 304.923 24.8554 309.345 29.278C313.768 33.7006 316.206 39.5819 316.206 45.8344C316.206 52.0869 313.768 57.9682 309.345 62.3908C304.923 66.8134 299.041 69.2515 292.789 69.2515C286.536 69.2515 280.655 66.8134 276.232 62.3908C271.81 57.9682 269.372 52.0869 269.372 45.8344C269.372 39.5819 271.81 33.7006 276.232 29.278C280.655 24.8554 286.536 22.4173 292.789 22.4173ZM292.789 14.2782C275.361 14.2782 261.238 28.4069 261.238 45.8292C261.238 63.2516 275.366 77.3803 292.789 77.3803C310.211 77.3803 324.34 63.2516 324.34 45.8292C324.34 28.4069 310.211 14.2782 292.789 14.2782Z" fill="white"/>
<path d="M381.251 15.4586V76.4164H370.019L340.932 26.9533V76.4164H331.876V15.4586H343.891L372.195 63.4424V15.4586H381.251Z" fill="white"/>
<path d="M437.998 76.4164H428.678L425.632 62.396C423.977 54.7363 419.972 51.5972 412.22 51.5972H401.246V76.4164H391.926V15.4586H416.921C429.024 15.4586 436.864 22.2523 436.864 32.7882C436.864 40.5407 432.596 46.288 425.369 48.7261C430.333 50.6436 433.204 54.2982 434.513 60.3084L437.998 76.4164ZM416.663 43.587C423.281 43.587 427.549 39.5819 427.549 33.6593C427.549 27.7368 423.282 23.644 416.751 23.644H401.251V43.587H416.663Z" fill="white"/>
<path d="M445.817 15.4586H455.137V76.4164H445.817V15.4586Z" fill="white"/>
<path d="M516.125 15.4586L493.311 76.4164H483.033L459.436 15.4586H469.539L488.26 66.0557L506.373 15.4586H516.125Z" fill="white"/>
<path d="M561.991 68.2309V76.4164H520.625V15.4586H561.64V23.644H529.94V41.2365H558.501V49.422H529.94V68.2309H561.991Z" fill="white"/>
<path d="M615 76.4164H605.681L602.634 62.396C600.98 54.7363 596.975 51.5972 589.222 51.5972H578.248V76.4164H568.929V15.4586H593.923C606.026 15.4586 613.866 22.2523 613.866 32.7882C613.866 40.5407 609.598 46.288 602.371 48.7261C607.335 50.6436 610.206 54.2982 611.516 60.3084L615 76.4164ZM593.665 43.587C600.284 43.587 604.552 39.5819 604.552 33.6593C604.552 27.7368 600.284 23.644 593.753 23.644H578.253V43.587H593.665Z" fill="white"/>
</svg>
