<svg width="92" height="91" viewBox="0 0 92 91" fill="none" xmlns="http://www.w3.org/2000/svg">
<path d="M91.3583 45.4564C91.3583 20.351 70.9064 0 45.6817 0C20.4571 0 0 20.351 0 45.4564C0 50.6467 0.876215 55.6319 2.48433 60.2786C2.49464 60.2991 2.58226 60.5658 2.58226 60.5658C3.23169 62.6224 0.0103084 63.4277 0.0103084 64.6586C0.0103084 66.587 6.80355 66.3254 6.80355 68.5667C6.80355 70.5208 0.0824673 71.126 0.0824673 73.0954C0.0824673 75.8188 14.9627 74.87 15.1534 77.2087C15.2977 79.014 10.0352 79.1269 10.0043 81.0553C9.95277 84.1377 30.3119 83.1273 30.3119 85.1788C30.3119 86.7329 21.0498 86.1687 21.0498 88.0048C21.0498 89.8409 33.2395 91 46.6765 91C60.1135 91 69.3808 89.5127 69.3808 87.9073C69.3808 86.302 60.732 86.6303 60.9124 85.184C61.2217 82.6555 80.4211 83.9479 80.4211 81.0194C80.4211 79.4756 75.1432 79.1166 75.3133 77.4549C75.5555 75.1059 91.3583 75.4547 91.3583 73.0134C91.3583 71.0952 83.5239 70.6233 83.5394 68.6283C83.5497 66.5921 91.3583 66.6793 91.3068 64.7714C91.2655 63.3046 87.8122 63.3405 88.8946 60.2324C90.4924 55.6011 91.3686 50.6313 91.3686 45.4564H91.3583ZM76.8441 58.3656C75.2566 61.9403 71.6899 61.2223 71.2878 62.725C70.8704 64.279 75.6844 64.5047 75.6844 66.1305C75.6844 68.1051 61.0104 67.3153 61.1547 69.9207C61.2474 71.5619 71.5765 71.8389 71.3806 73.5519C71.0971 76.0342 55.3768 74.7931 55.2222 77.1728C55.1088 78.9166 62.8968 78.9781 62.9123 80.5681C62.9277 81.9067 56.7994 82.635 45.0581 82.635C31.6881 82.635 25.1835 81.9169 25.9257 80.4245C26.6163 79.0294 38.4555 79.2859 38.337 77.0907C38.2184 74.9008 17.313 75.5419 16.6842 73.4134C16.1584 71.644 23.5547 71.2798 23.5083 69.5976C23.462 67.8846 14.0401 68.2744 13.8339 66.1972C13.6999 64.8381 18.7562 64.9201 18.5397 63.2071C18.3799 61.9608 16.2924 62.1352 15.0554 59.5657C13.0608 55.2729 11.9371 50.4929 11.9371 45.4513C11.9371 26.9056 27.0493 11.868 45.6869 11.868C64.3245 11.868 79.4366 26.9056 79.4366 45.4513C79.4366 50.0262 78.514 54.3856 76.8492 58.3604L76.8441 58.3656Z" fill="white"/>
</svg>
