<svg width="668" height="668" viewBox="0 0 668 668" fill="none" xmlns="http://www.w3.org/2000/svg">
<circle cx="334" cy="334" r="334" fill="#06353D"/>
<circle cx="334" cy="334" r="333.5" stroke="white" stroke-opacity="0.3"/>
<path d="M527.427 452.767C527.491 442.31 567.394 442.759 567.137 432.965C566.987 427.149 556.381 425.93 554.157 418.274C553.772 416.863 553.665 415.238 553.9 413.335C554.071 412.201 554.349 410.982 554.82 409.657C562.988 385.856 567.458 360.324 567.458 333.764C567.436 204.818 462.911 100.293 333.986 100.293C205.061 100.293 100.515 204.818 100.515 333.764C100.515 360.174 104.92 385.557 113.003 409.229C113.046 409.443 113.131 409.678 113.217 409.913C113.452 410.533 113.644 411.111 113.816 411.688C116.702 422.038 100.579 426.165 100.579 432.409C100.579 442.31 135.307 440.984 135.307 452.489C135.307 462.518 100.964 465.619 100.964 475.755C100.964 489.74 177.027 484.864 177.968 496.882C178.716 506.163 151.815 506.719 151.665 516.641C151.409 532.465 255.464 527.291 255.464 537.833C255.464 545.809 208.141 542.922 208.141 552.353C208.141 561.783 270.433 567.728 339.097 567.728C407.761 567.728 455.127 560.094 455.127 551.839C455.127 543.585 410.926 545.296 411.824 537.833C413.407 524.853 511.517 531.482 511.517 516.449C511.517 508.537 484.53 506.676 485.407 498.123C486.647 486.062 567.415 487.837 567.415 475.306C567.415 465.448 527.384 463.031 527.448 452.788L527.427 452.767ZM422.816 511.787C422.816 518.694 391.531 521.838 331.463 521.838C282.344 521.838 233.566 518.758 233.566 510.739C233.566 502.72 291.753 501.993 331.762 502.057C385.03 502.164 422.837 504.623 422.837 511.787H422.816ZM333.986 161.259C407.633 161.259 470.481 207.406 495.222 272.371C498.088 280.796 487.716 280.283 480.403 280.283H460.516C446.317 280.283 428.44 281.994 428.44 285.885C428.44 290.761 471.849 290.483 476.618 290.483C490.625 290.483 501.595 291.531 503.199 300.127C505.358 311.012 506.492 322.26 506.492 333.764C506.492 356.902 501.916 378.97 493.661 399.114C490.967 405.038 487.46 408.117 483.183 410.683C462.654 422.102 425.446 420.049 425.446 426.935C425.446 436.921 488.123 432.666 488.208 441.348C488.337 454.606 376.391 446.737 376.391 458.69C376.391 470.537 466.461 465.02 466.461 477.444C466.461 483.688 437.528 485.998 406.008 486.789C357.017 487.431 270.411 487.067 237.779 485.934C237.779 485.934 237.779 485.934 237.822 485.976C215.732 485.185 196.936 482.17 189.558 478.984C187.527 478.107 187.441 475.648 189.387 474.643C211.691 463.16 347.886 472.312 347.886 458.968C347.886 445.625 213.316 454.863 213.423 443.294C213.508 435.061 272.229 435.788 318.803 435.788C379.128 435.788 397.647 432.773 397.625 428.432C397.582 419.686 323.444 424.818 323.166 415.003C322.909 405.487 440.5 412.437 440.5 403.113C440.5 397.19 389.414 396.634 338.327 396.826C287.241 397.019 236.154 397.104 236.154 403.434C236.154 410.597 296.607 407.818 296.607 415.003C296.607 420.669 263.376 421.846 228.691 421.846C205.789 421.846 188.04 420.113 179.336 409.314C178.631 408.416 177.904 407.133 177.326 405.957C167.212 383.996 161.523 359.554 161.523 333.786C161.523 238.52 238.741 161.302 334.008 161.302L333.986 161.259Z" fill="#95F921"/>
<path d="M330.458 383.44C404.746 383.44 477.089 384.509 477.089 376.212C477.089 366.161 373.354 367.338 319.445 367.338C276.698 367.338 200.058 365.99 200.058 375.549C200.058 385.108 285.872 383.44 330.436 383.44H330.458Z" fill="#95F921"/>
<path d="M378.444 354.913C427.285 354.913 451.748 354.336 451.748 348.455C451.748 339.944 385.244 344.67 385.244 336.224C385.244 328.803 427.264 332.973 427.264 325.018C427.264 318.753 380.219 319.33 354.558 319.33C326.117 319.33 298.104 320.399 298.104 325.745C298.104 332.653 369.805 328.782 369.805 335.86C369.805 345.996 256.041 338.683 256.041 348.455C256.041 357.715 329.987 354.913 378.422 354.913H378.444Z" fill="#95F921"/>
<path d="M426.366 309.643C436.822 309.643 467.508 309.002 467.508 304.789C467.508 300.576 444.777 299.229 421.148 299.272C404.917 299.272 371.815 299.55 371.815 304.297C371.815 309.044 396.941 309.643 426.366 309.643Z" fill="#95F921"/>
<path d="M444.05 325.147C444.05 329.124 461.606 330.749 475.057 330.749C482.841 330.749 497.66 329.124 497.66 325.981C497.66 322.174 482.435 320.998 473.175 320.87C461.179 320.72 444.05 321.704 444.05 325.125V325.147Z" fill="#95F921"/>
</svg>
